<svg width="20" height="20" viewBox="0 0 20 20" fill="none" xmlns="http://www.w3.org/2000/svg">
<path fill-rule="evenodd" clip-rule="evenodd" d="M14.725 7.30125C14.5492 7.47681 14.3109 7.57543 14.0625 7.57543C13.8141 7.57543 13.5758 7.47681 13.4 7.30125L10.9375 4.83875V14.0625C10.9375 14.3111 10.8387 14.5496 10.6629 14.7254C10.4871 14.9012 10.2486 15 10 15C9.75136 15 9.5129 14.9012 9.33709 14.7254C9.16127 14.5496 9.0625 14.3111 9.0625 14.0625V4.83875L6.6 7.30125C6.42228 7.46685 6.18722 7.557 5.94435 7.55272C5.70147 7.54843 5.46974 7.45004 5.29797 7.27828C5.12621 7.10651 5.02782 6.87478 5.02353 6.6319C5.01925 6.38903 5.1094 6.15397 5.275 5.97625L9.3375 1.91375L10 1.25L10.6625 1.9125L14.725 5.975C14.8121 6.06206 14.8812 6.16544 14.9284 6.27922C14.9755 6.393 14.9998 6.51496 14.9998 6.63813C14.9998 6.76129 14.9755 6.88325 14.9284 6.99703C14.8812 7.11081 14.8121 7.21419 14.725 7.30125ZM3.125 12.1875C3.125 11.9389 3.02623 11.7004 2.85041 11.5246C2.6746 11.3488 2.43614 11.25 2.1875 11.25C1.93886 11.25 1.7004 11.3488 1.52459 11.5246C1.34877 11.7004 1.25 11.9389 1.25 12.1875V16.25C1.25 16.913 1.51339 17.5489 1.98223 18.0178C2.45107 18.4866 3.08696 18.75 3.75 18.75H16.25C16.913 18.75 17.5489 18.4866 18.0178 18.0178C18.4866 17.5489 18.75 16.913 18.75 16.25V12.1875C18.75 11.9389 18.6512 11.7004 18.4754 11.5246C18.2996 11.3488 18.0611 11.25 17.8125 11.25C17.5639 11.25 17.3254 11.3488 17.1496 11.5246C16.9738 11.7004 16.875 11.9389 16.875 12.1875V16.25C16.875 16.4158 16.8092 16.5747 16.6919 16.6919C16.5747 16.8092 16.4158 16.875 16.25 16.875H3.75C3.58424 16.875 3.42527 16.8092 3.30806 16.6919C3.19085 16.5747 3.125 16.4158 3.125 16.25V12.1875Z" fill="black"/>
</svg>
