<svg width="15" height="15" viewBox="0 0 15 15" fill="none" xmlns="http://www.w3.org/2000/svg">
<path d="M6.87528 12.5C6.6982 12.5 6.54966 12.44 6.42966 12.32C6.30966 12.2 6.24986 12.0517 6.25028 11.875V8.125L2.62528 3.5C2.46903 3.29167 2.44549 3.07292 2.55466 2.84375C2.66382 2.61458 2.85403 2.5 3.12528 2.5H11.8753C12.1461 2.5 12.3363 2.61458 12.4459 2.84375C12.5555 3.07292 12.5319 3.29167 12.3753 3.5L8.75028 8.125V11.875C8.75028 12.0521 8.69028 12.2006 8.57028 12.3206C8.45028 12.4406 8.30195 12.5004 8.12528 12.5H6.87528Z" fill="#B49C30"/>
</svg>
