<svg width="20" height="18" viewBox="0 0 20 18" fill="none" xmlns="http://www.w3.org/2000/svg">
<path d="M16 4H4V0H16V4ZM16 9.5C16.2833 9.5 16.521 9.404 16.713 9.212C16.905 9.02 17.0007 8.78267 17 8.5C17 8.21667 16.904 7.979 16.712 7.787C16.52 7.595 16.2827 7.49933 16 7.5C15.7167 7.5 15.479 7.596 15.287 7.788C15.095 7.98 14.9993 8.21733 15 8.5C15 8.78333 15.096 9.021 15.288 9.213C15.48 9.405 15.7173 9.50067 16 9.5ZM14 16V12H6V16H14ZM16 18H4V14H0V8C0 7.15 0.291667 6.43733 0.875 5.862C1.45833 5.28667 2.16667 4.99933 3 5H17C17.85 5 18.5627 5.28767 19.138 5.863C19.7133 6.43833 20.0007 7.15067 20 8V14H16V18Z" fill="black"/>
</svg>
